<?xml version="1.0" encoding="utf-8" standalone="no"?>
<!DOCTYPE svg PUBLIC "-//W3C//DTD SVG 1.1//EN"
  "http://www.w3.org/Graphics/SVG/1.1/DTD/svg11.dtd">
<!-- Created with matplotlib (https://matplotlib.org/) -->
<svg height="432pt" version="1.1" viewBox="0 0 720 432" width="720pt" xmlns="http://www.w3.org/2000/svg" xmlns:xlink="http://www.w3.org/1999/xlink">
 <defs>
  <style type="text/css">
*{stroke-linecap:butt;stroke-linejoin:round;}
  </style>
 </defs>
 <g id="figure_1">
  <g id="patch_1">
   <path d="M 0 432 
L 720 432 
L 720 0 
L 0 0 
z
" style="fill:none;"/>
  </g>
  <g id="axes_1">
   <g id="patch_2">
    <path d="M 90 378 
L 536.4 378 
L 536.4 51.84 
L 90 51.84 
z
" style="fill:none;"/>
   </g>
   <g id="QuadMesh_1">
    <path clip-path="url(#p82c0f2f85c)" d="M 90 51.84 
L 153.771429 51.84 
L 153.771429 106.2 
L 90 106.2 
L 90 51.84 
" style="fill:#c7eec7;"/>
    <path clip-path="url(#p82c0f2f85c)" d="M 153.771429 51.84 
L 217.542857 51.84 
L 217.542857 106.2 
L 153.771429 106.2 
L 153.771429 51.84 
" style="fill:#a8dda8;"/>
    <path clip-path="url(#p82c0f2f85c)" d="M 217.542857 51.84 
L 281.314286 51.84 
L 281.314286 106.2 
L 217.542857 106.2 
L 217.542857 51.84 
" style="fill:#99d599;"/>
    <path clip-path="url(#p82c0f2f85c)" d="M 281.314286 51.84 
L 345.085714 51.84 
L 345.085714 106.2 
L 281.314286 106.2 
L 281.314286 51.84 
" style="fill:#99d599;"/>
    <path clip-path="url(#p82c0f2f85c)" d="M 345.085714 51.84 
L 408.857143 51.84 
L 408.857143 106.2 
L 345.085714 106.2 
L 345.085714 51.84 
" style="fill:#8acc8a;"/>
    <path clip-path="url(#p82c0f2f85c)" d="M 408.857143 51.84 
L 472.628571 51.84 
L 472.628571 106.2 
L 408.857143 106.2 
L 408.857143 51.84 
" style="fill:#b8e6b8;"/>
    <path clip-path="url(#p82c0f2f85c)" d="M 472.628571 51.84 
L 536.4 51.84 
L 536.4 106.2 
L 472.628571 106.2 
L 472.628571 51.84 
" style="fill:#b8e6b8;"/>
    <path clip-path="url(#p82c0f2f85c)" d="M 90 106.2 
L 153.771429 106.2 
L 153.771429 160.56 
L 90 160.56 
L 90 106.2 
" style="fill:#e5ffe5;"/>
    <path clip-path="url(#p82c0f2f85c)" d="M 153.771429 106.2 
L 217.542857 106.2 
L 217.542857 160.56 
L 153.771429 160.56 
L 153.771429 106.2 
" style="fill:#e5ffe5;"/>
    <path clip-path="url(#p82c0f2f85c)" d="M 217.542857 106.2 
L 281.314286 106.2 
L 281.314286 160.56 
L 217.542857 160.56 
L 217.542857 106.2 
" style="fill:#e5ffe5;"/>
    <path clip-path="url(#p82c0f2f85c)" d="M 281.314286 106.2 
L 345.085714 106.2 
L 345.085714 160.56 
L 281.314286 160.56 
L 281.314286 106.2 
" style="fill:#e5ffe5;"/>
    <path clip-path="url(#p82c0f2f85c)" d="M 345.085714 106.2 
L 408.857143 106.2 
L 408.857143 160.56 
L 345.085714 160.56 
L 345.085714 106.2 
" style="fill:#e5ffe5;"/>
    <path clip-path="url(#p82c0f2f85c)" d="M 408.857143 106.2 
L 472.628571 106.2 
L 472.628571 160.56 
L 408.857143 160.56 
L 408.857143 106.2 
" style="fill:#d6f7d6;"/>
    <path clip-path="url(#p82c0f2f85c)" d="M 472.628571 106.2 
L 536.4 106.2 
L 536.4 160.56 
L 472.628571 160.56 
L 472.628571 106.2 
" style="fill:#e5ffe5;"/>
    <path clip-path="url(#p82c0f2f85c)" d="M 90 160.56 
L 153.771429 160.56 
L 153.771429 214.92 
L 90 214.92 
L 90 160.56 
" style="fill:#e5ffe5;"/>
    <path clip-path="url(#p82c0f2f85c)" d="M 153.771429 160.56 
L 217.542857 160.56 
L 217.542857 214.92 
L 153.771429 214.92 
L 153.771429 160.56 
" style="fill:#e5ffe5;"/>
    <path clip-path="url(#p82c0f2f85c)" d="M 217.542857 160.56 
L 281.314286 160.56 
L 281.314286 214.92 
L 217.542857 214.92 
L 217.542857 160.56 
" style="fill:#e5ffe5;"/>
    <path clip-path="url(#p82c0f2f85c)" d="M 281.314286 160.56 
L 345.085714 160.56 
L 345.085714 214.92 
L 281.314286 214.92 
L 281.314286 160.56 
" style="fill:#e5ffe5;"/>
    <path clip-path="url(#p82c0f2f85c)" d="M 345.085714 160.56 
L 408.857143 160.56 
L 408.857143 214.92 
L 345.085714 214.92 
L 345.085714 160.56 
" style="fill:#e5ffe5;"/>
    <path clip-path="url(#p82c0f2f85c)" d="M 408.857143 160.56 
L 472.628571 160.56 
L 472.628571 214.92 
L 408.857143 214.92 
L 408.857143 160.56 
" style="fill:#e5ffe5;"/>
    <path clip-path="url(#p82c0f2f85c)" d="M 472.628571 160.56 
L 536.4 160.56 
L 536.4 214.92 
L 472.628571 214.92 
L 472.628571 160.56 
" style="fill:#e5ffe5;"/>
    <path clip-path="url(#p82c0f2f85c)" d="M 90 214.92 
L 153.771429 214.92 
L 153.771429 269.28 
L 90 269.28 
L 90 214.92 
" style="fill:#c7eec7;"/>
    <path clip-path="url(#p82c0f2f85c)" d="M 153.771429 214.92 
L 217.542857 214.92 
L 217.542857 269.28 
L 153.771429 269.28 
L 153.771429 214.92 
" style="fill:#c7eec7;"/>
    <path clip-path="url(#p82c0f2f85c)" d="M 217.542857 214.92 
L 281.314286 214.92 
L 281.314286 269.28 
L 217.542857 269.28 
L 217.542857 214.92 
" style="fill:#c7eec7;"/>
    <path clip-path="url(#p82c0f2f85c)" d="M 281.314286 214.92 
L 345.085714 214.92 
L 345.085714 269.28 
L 281.314286 269.28 
L 281.314286 214.92 
" style="fill:#c7eec7;"/>
    <path clip-path="url(#p82c0f2f85c)" d="M 345.085714 214.92 
L 408.857143 214.92 
L 408.857143 269.28 
L 345.085714 269.28 
L 345.085714 214.92 
" style="fill:#c7eec7;"/>
    <path clip-path="url(#p82c0f2f85c)" d="M 408.857143 214.92 
L 472.628571 214.92 
L 472.628571 269.28 
L 408.857143 269.28 
L 408.857143 214.92 
" style="fill:#d6f7d6;"/>
    <path clip-path="url(#p82c0f2f85c)" d="M 472.628571 214.92 
L 536.4 214.92 
L 536.4 269.28 
L 472.628571 269.28 
L 472.628571 214.92 
" style="fill:#e5ffe5;"/>
    <path clip-path="url(#p82c0f2f85c)" d="M 90 269.28 
L 153.771429 269.28 
L 153.771429 323.64 
L 90 323.64 
L 90 269.28 
" style="fill:#7ac47a;"/>
    <path clip-path="url(#p82c0f2f85c)" d="M 153.771429 269.28 
L 217.542857 269.28 
L 217.542857 323.64 
L 153.771429 323.64 
L 153.771429 269.28 
" style="fill:#7ac47a;"/>
    <path clip-path="url(#p82c0f2f85c)" d="M 217.542857 269.28 
L 281.314286 269.28 
L 281.314286 323.64 
L 217.542857 323.64 
L 217.542857 269.28 
" style="fill:#7ac47a;"/>
    <path clip-path="url(#p82c0f2f85c)" d="M 281.314286 269.28 
L 345.085714 269.28 
L 345.085714 323.64 
L 281.314286 323.64 
L 281.314286 269.28 
" style="fill:#7ac47a;"/>
    <path clip-path="url(#p82c0f2f85c)" d="M 345.085714 269.28 
L 408.857143 269.28 
L 408.857143 323.64 
L 345.085714 323.64 
L 345.085714 269.28 
" style="fill:#5cb35c;"/>
    <path clip-path="url(#p82c0f2f85c)" d="M 408.857143 269.28 
L 472.628571 269.28 
L 472.628571 323.64 
L 408.857143 323.64 
L 408.857143 269.28 
" style="fill:#b8e6b8;"/>
    <path clip-path="url(#p82c0f2f85c)" d="M 472.628571 269.28 
L 536.4 269.28 
L 536.4 323.64 
L 472.628571 323.64 
L 472.628571 269.28 
" style="fill:#c7eec7;"/>
    <path clip-path="url(#p82c0f2f85c)" d="M 90 323.64 
L 153.771429 323.64 
L 153.771429 378 
L 90 378 
L 90 323.64 
" style="fill:#008000;"/>
    <path clip-path="url(#p82c0f2f85c)" d="M 153.771429 323.64 
L 217.542857 323.64 
L 217.542857 378 
L 153.771429 378 
L 153.771429 323.64 
" style="fill:#008000;"/>
    <path clip-path="url(#p82c0f2f85c)" d="M 217.542857 323.64 
L 281.314286 323.64 
L 281.314286 378 
L 217.542857 378 
L 217.542857 323.64 
" style="fill:#008000;"/>
    <path clip-path="url(#p82c0f2f85c)" d="M 281.314286 323.64 
L 345.085714 323.64 
L 345.085714 378 
L 281.314286 378 
L 281.314286 323.64 
" style="fill:#008000;"/>
    <path clip-path="url(#p82c0f2f85c)" d="M 345.085714 323.64 
L 408.857143 323.64 
L 408.857143 378 
L 345.085714 378 
L 345.085714 323.64 
" style="fill:#008000;"/>
    <path clip-path="url(#p82c0f2f85c)" d="M 408.857143 323.64 
L 472.628571 323.64 
L 472.628571 378 
L 408.857143 378 
L 408.857143 323.64 
" style="fill:#a8dda8;"/>
    <path clip-path="url(#p82c0f2f85c)" d="M 472.628571 323.64 
L 536.4 323.64 
L 536.4 378 
L 472.628571 378 
L 472.628571 323.64 
" style="fill:#a8dda8;"/>
   </g>
   <g id="matplotlib.axis_1">
    <g id="xtick_1">
     <g id="line2d_1">
      <defs>
       <path d="M 0 0 
L 0 3.5 
" id="m667d097a68" style="stroke:#000000;stroke-width:0.8;"/>
      </defs>
      <g>
       <use style="stroke:#000000;stroke-width:0.8;" x="121.885714" xlink:href="#m667d097a68" y="378"/>
      </g>
     </g>
     <g id="text_1">
      <!-- MON -->
      <defs>
       <path d="M 9.8125 72.90625 
L 24.515625 72.90625 
L 43.109375 23.296875 
L 61.8125 72.90625 
L 76.515625 72.90625 
L 76.515625 0 
L 66.890625 0 
L 66.890625 64.015625 
L 48.09375 14.015625 
L 38.1875 14.015625 
L 19.390625 64.015625 
L 19.390625 0 
L 9.8125 0 
z
" id="DejaVuSans-77"/>
       <path d="M 39.40625 66.21875 
Q 28.65625 66.21875 22.328125 58.203125 
Q 16.015625 50.203125 16.015625 36.375 
Q 16.015625 22.609375 22.328125 14.59375 
Q 28.65625 6.59375 39.40625 6.59375 
Q 50.140625 6.59375 56.421875 14.59375 
Q 62.703125 22.609375 62.703125 36.375 
Q 62.703125 50.203125 56.421875 58.203125 
Q 50.140625 66.21875 39.40625 66.21875 
z
M 39.40625 74.21875 
Q 54.734375 74.21875 63.90625 63.9375 
Q 73.09375 53.65625 73.09375 36.375 
Q 73.09375 19.140625 63.90625 8.859375 
Q 54.734375 -1.421875 39.40625 -1.421875 
Q 24.03125 -1.421875 14.8125 8.828125 
Q 5.609375 19.09375 5.609375 36.375 
Q 5.609375 53.65625 14.8125 63.9375 
Q 24.03125 74.21875 39.40625 74.21875 
z
" id="DejaVuSans-79"/>
       <path d="M 9.8125 72.90625 
L 23.09375 72.90625 
L 55.421875 11.921875 
L 55.421875 72.90625 
L 64.984375 72.90625 
L 64.984375 0 
L 51.703125 0 
L 19.390625 60.984375 
L 19.390625 0 
L 9.8125 0 
z
" id="DejaVuSans-78"/>
      </defs>
      <g transform="translate(102.700714 397.1575)scale(0.16 -0.16)">
       <use xlink:href="#DejaVuSans-77"/>
       <use x="86.279297" xlink:href="#DejaVuSans-79"/>
       <use x="164.990234" xlink:href="#DejaVuSans-78"/>
      </g>
     </g>
    </g>
    <g id="xtick_2">
     <g id="line2d_2">
      <g>
       <use style="stroke:#000000;stroke-width:0.8;" x="185.657143" xlink:href="#m667d097a68" y="378"/>
      </g>
     </g>
     <g id="text_2">
      <!-- TUE -->
      <defs>
       <path d="M -0.296875 72.90625 
L 61.375 72.90625 
L 61.375 64.59375 
L 35.5 64.59375 
L 35.5 0 
L 25.59375 0 
L 25.59375 64.59375 
L -0.296875 64.59375 
z
" id="DejaVuSans-84"/>
       <path d="M 8.6875 72.90625 
L 18.609375 72.90625 
L 18.609375 28.609375 
Q 18.609375 16.890625 22.84375 11.734375 
Q 27.09375 6.59375 36.625 6.59375 
Q 46.09375 6.59375 50.34375 11.734375 
Q 54.59375 16.890625 54.59375 28.609375 
L 54.59375 72.90625 
L 64.5 72.90625 
L 64.5 27.390625 
Q 64.5 13.140625 57.4375 5.859375 
Q 50.390625 -1.421875 36.625 -1.421875 
Q 22.796875 -1.421875 15.734375 5.859375 
Q 8.6875 13.140625 8.6875 27.390625 
z
" id="DejaVuSans-85"/>
       <path d="M 9.8125 72.90625 
L 55.90625 72.90625 
L 55.90625 64.59375 
L 19.671875 64.59375 
L 19.671875 43.015625 
L 54.390625 43.015625 
L 54.390625 34.71875 
L 19.671875 34.71875 
L 19.671875 8.296875 
L 56.78125 8.296875 
L 56.78125 0 
L 9.8125 0 
z
" id="DejaVuSans-69"/>
      </defs>
      <g transform="translate(169.860893 397.1575)scale(0.16 -0.16)">
       <use xlink:href="#DejaVuSans-84"/>
       <use x="61.083984" xlink:href="#DejaVuSans-85"/>
       <use x="134.277344" xlink:href="#DejaVuSans-69"/>
      </g>
     </g>
    </g>
    <g id="xtick_3">
     <g id="line2d_3">
      <g>
       <use style="stroke:#000000;stroke-width:0.8;" x="249.428571" xlink:href="#m667d097a68" y="378"/>
      </g>
     </g>
     <g id="text_3">
      <!-- WED -->
      <defs>
       <path d="M 3.328125 72.90625 
L 13.28125 72.90625 
L 28.609375 11.28125 
L 43.890625 72.90625 
L 54.984375 72.90625 
L 70.3125 11.28125 
L 85.59375 72.90625 
L 95.609375 72.90625 
L 77.296875 0 
L 64.890625 0 
L 49.515625 63.28125 
L 33.984375 0 
L 21.578125 0 
z
" id="DejaVuSans-87"/>
       <path d="M 19.671875 64.796875 
L 19.671875 8.109375 
L 31.59375 8.109375 
Q 46.6875 8.109375 53.6875 14.9375 
Q 60.6875 21.78125 60.6875 36.53125 
Q 60.6875 51.171875 53.6875 57.984375 
Q 46.6875 64.796875 31.59375 64.796875 
z
M 9.8125 72.90625 
L 30.078125 72.90625 
Q 51.265625 72.90625 61.171875 64.09375 
Q 71.09375 55.28125 71.09375 36.53125 
Q 71.09375 17.671875 61.125 8.828125 
Q 51.171875 0 30.078125 0 
L 9.8125 0 
z
" id="DejaVuSans-68"/>
      </defs>
      <g transform="translate(230.303571 397.1575)scale(0.16 -0.16)">
       <use xlink:href="#DejaVuSans-87"/>
       <use x="98.876953" xlink:href="#DejaVuSans-69"/>
       <use x="162.060547" xlink:href="#DejaVuSans-68"/>
      </g>
     </g>
    </g>
    <g id="xtick_4">
     <g id="line2d_4">
      <g>
       <use style="stroke:#000000;stroke-width:0.8;" x="313.2" xlink:href="#m667d097a68" y="378"/>
      </g>
     </g>
     <g id="text_4">
      <!-- THU -->
      <defs>
       <path d="M 9.8125 72.90625 
L 19.671875 72.90625 
L 19.671875 43.015625 
L 55.515625 43.015625 
L 55.515625 72.90625 
L 65.375 72.90625 
L 65.375 0 
L 55.515625 0 
L 55.515625 34.71875 
L 19.671875 34.71875 
L 19.671875 0 
L 9.8125 0 
z
" id="DejaVuSans-72"/>
      </defs>
      <g transform="translate(296.4425 397.1575)scale(0.16 -0.16)">
       <use xlink:href="#DejaVuSans-84"/>
       <use x="61.083984" xlink:href="#DejaVuSans-72"/>
       <use x="136.279297" xlink:href="#DejaVuSans-85"/>
      </g>
     </g>
    </g>
    <g id="xtick_5">
     <g id="line2d_5">
      <g>
       <use style="stroke:#000000;stroke-width:0.8;" x="376.971429" xlink:href="#m667d097a68" y="378"/>
      </g>
     </g>
     <g id="text_5">
      <!-- FRI -->
      <defs>
       <path d="M 9.8125 72.90625 
L 51.703125 72.90625 
L 51.703125 64.59375 
L 19.671875 64.59375 
L 19.671875 43.109375 
L 48.578125 43.109375 
L 48.578125 34.8125 
L 19.671875 34.8125 
L 19.671875 0 
L 9.8125 0 
z
" id="DejaVuSans-70"/>
       <path d="M 44.390625 34.1875 
Q 47.5625 33.109375 50.5625 29.59375 
Q 53.5625 26.078125 56.59375 19.921875 
L 66.609375 0 
L 56 0 
L 46.6875 18.703125 
Q 43.0625 26.03125 39.671875 28.421875 
Q 36.28125 30.8125 30.421875 30.8125 
L 19.671875 30.8125 
L 19.671875 0 
L 9.8125 0 
L 9.8125 72.90625 
L 32.078125 72.90625 
Q 44.578125 72.90625 50.734375 67.671875 
Q 56.890625 62.453125 56.890625 51.90625 
Q 56.890625 45.015625 53.6875 40.46875 
Q 50.484375 35.9375 44.390625 34.1875 
z
M 19.671875 64.796875 
L 19.671875 38.921875 
L 32.078125 38.921875 
Q 39.203125 38.921875 42.84375 42.21875 
Q 46.484375 45.515625 46.484375 51.90625 
Q 46.484375 58.296875 42.84375 61.546875 
Q 39.203125 64.796875 32.078125 64.796875 
z
" id="DejaVuSans-82"/>
       <path d="M 9.8125 72.90625 
L 19.671875 72.90625 
L 19.671875 0 
L 9.8125 0 
z
" id="DejaVuSans-73"/>
      </defs>
      <g transform="translate(364.451429 397.1575)scale(0.16 -0.16)">
       <use xlink:href="#DejaVuSans-70"/>
       <use x="57.519531" xlink:href="#DejaVuSans-82"/>
       <use x="127.001953" xlink:href="#DejaVuSans-73"/>
      </g>
     </g>
    </g>
    <g id="xtick_6">
     <g id="line2d_6">
      <g>
       <use style="stroke:#000000;stroke-width:0.8;" x="440.742857" xlink:href="#m667d097a68" y="378"/>
      </g>
     </g>
     <g id="text_6">
      <!-- SAT -->
      <defs>
       <path d="M 53.515625 70.515625 
L 53.515625 60.890625 
Q 47.90625 63.578125 42.921875 64.890625 
Q 37.9375 66.21875 33.296875 66.21875 
Q 25.25 66.21875 20.875 63.09375 
Q 16.5 59.96875 16.5 54.203125 
Q 16.5 49.359375 19.40625 46.890625 
Q 22.3125 44.4375 30.421875 42.921875 
L 36.375 41.703125 
Q 47.40625 39.59375 52.65625 34.296875 
Q 57.90625 29 57.90625 20.125 
Q 57.90625 9.515625 50.796875 4.046875 
Q 43.703125 -1.421875 29.984375 -1.421875 
Q 24.8125 -1.421875 18.96875 -0.25 
Q 13.140625 0.921875 6.890625 3.21875 
L 6.890625 13.375 
Q 12.890625 10.015625 18.65625 8.296875 
Q 24.421875 6.59375 29.984375 6.59375 
Q 38.421875 6.59375 43.015625 9.90625 
Q 47.609375 13.234375 47.609375 19.390625 
Q 47.609375 24.75 44.3125 27.78125 
Q 41.015625 30.8125 33.5 32.328125 
L 27.484375 33.5 
Q 16.453125 35.6875 11.515625 40.375 
Q 6.59375 45.0625 6.59375 53.421875 
Q 6.59375 63.09375 13.40625 68.65625 
Q 20.21875 74.21875 32.171875 74.21875 
Q 37.3125 74.21875 42.625 73.28125 
Q 47.953125 72.359375 53.515625 70.515625 
z
" id="DejaVuSans-83"/>
       <path d="M 34.1875 63.1875 
L 20.796875 26.90625 
L 47.609375 26.90625 
z
M 28.609375 72.90625 
L 39.796875 72.90625 
L 67.578125 0 
L 57.328125 0 
L 50.6875 18.703125 
L 17.828125 18.703125 
L 11.1875 0 
L 0.78125 0 
z
" id="DejaVuSans-65"/>
      </defs>
      <g transform="translate(425.312857 397.1575)scale(0.16 -0.16)">
       <use xlink:href="#DejaVuSans-83"/>
       <use x="63.492188" xlink:href="#DejaVuSans-65"/>
       <use x="131.791016" xlink:href="#DejaVuSans-84"/>
      </g>
     </g>
    </g>
    <g id="xtick_7">
     <g id="line2d_7">
      <g>
       <use style="stroke:#000000;stroke-width:0.8;" x="504.514286" xlink:href="#m667d097a68" y="378"/>
      </g>
     </g>
     <g id="text_7">
      <!-- SUN -->
      <g transform="translate(487.595536 397.1575)scale(0.16 -0.16)">
       <use xlink:href="#DejaVuSans-83"/>
       <use x="63.476562" xlink:href="#DejaVuSans-85"/>
       <use x="136.669922" xlink:href="#DejaVuSans-78"/>
      </g>
     </g>
    </g>
    <g id="text_8">
     <!-- Day of the Week -->
     <defs>
      <path d="M 34.28125 27.484375 
Q 23.390625 27.484375 19.1875 25 
Q 14.984375 22.515625 14.984375 16.5 
Q 14.984375 11.71875 18.140625 8.90625 
Q 21.296875 6.109375 26.703125 6.109375 
Q 34.1875 6.109375 38.703125 11.40625 
Q 43.21875 16.703125 43.21875 25.484375 
L 43.21875 27.484375 
z
M 52.203125 31.203125 
L 52.203125 0 
L 43.21875 0 
L 43.21875 8.296875 
Q 40.140625 3.328125 35.546875 0.953125 
Q 30.953125 -1.421875 24.3125 -1.421875 
Q 15.921875 -1.421875 10.953125 3.296875 
Q 6 8.015625 6 15.921875 
Q 6 25.140625 12.171875 29.828125 
Q 18.359375 34.515625 30.609375 34.515625 
L 43.21875 34.515625 
L 43.21875 35.40625 
Q 43.21875 41.609375 39.140625 45 
Q 35.0625 48.390625 27.6875 48.390625 
Q 23 48.390625 18.546875 47.265625 
Q 14.109375 46.140625 10.015625 43.890625 
L 10.015625 52.203125 
Q 14.9375 54.109375 19.578125 55.046875 
Q 24.21875 56 28.609375 56 
Q 40.484375 56 46.34375 49.84375 
Q 52.203125 43.703125 52.203125 31.203125 
z
" id="DejaVuSans-97"/>
      <path d="M 32.171875 -5.078125 
Q 28.375 -14.84375 24.75 -17.8125 
Q 21.140625 -20.796875 15.09375 -20.796875 
L 7.90625 -20.796875 
L 7.90625 -13.28125 
L 13.1875 -13.28125 
Q 16.890625 -13.28125 18.9375 -11.515625 
Q 21 -9.765625 23.484375 -3.21875 
L 25.09375 0.875 
L 2.984375 54.6875 
L 12.5 54.6875 
L 29.59375 11.921875 
L 46.6875 54.6875 
L 56.203125 54.6875 
z
" id="DejaVuSans-121"/>
      <path id="DejaVuSans-32"/>
      <path d="M 30.609375 48.390625 
Q 23.390625 48.390625 19.1875 42.75 
Q 14.984375 37.109375 14.984375 27.296875 
Q 14.984375 17.484375 19.15625 11.84375 
Q 23.34375 6.203125 30.609375 6.203125 
Q 37.796875 6.203125 41.984375 11.859375 
Q 46.1875 17.53125 46.1875 27.296875 
Q 46.1875 37.015625 41.984375 42.703125 
Q 37.796875 48.390625 30.609375 48.390625 
z
M 30.609375 56 
Q 42.328125 56 49.015625 48.375 
Q 55.71875 40.765625 55.71875 27.296875 
Q 55.71875 13.875 49.015625 6.21875 
Q 42.328125 -1.421875 30.609375 -1.421875 
Q 18.84375 -1.421875 12.171875 6.21875 
Q 5.515625 13.875 5.515625 27.296875 
Q 5.515625 40.765625 12.171875 48.375 
Q 18.84375 56 30.609375 56 
z
" id="DejaVuSans-111"/>
      <path d="M 37.109375 75.984375 
L 37.109375 68.5 
L 28.515625 68.5 
Q 23.6875 68.5 21.796875 66.546875 
Q 19.921875 64.59375 19.921875 59.515625 
L 19.921875 54.6875 
L 34.71875 54.6875 
L 34.71875 47.703125 
L 19.921875 47.703125 
L 19.921875 0 
L 10.890625 0 
L 10.890625 47.703125 
L 2.296875 47.703125 
L 2.296875 54.6875 
L 10.890625 54.6875 
L 10.890625 58.5 
Q 10.890625 67.625 15.140625 71.796875 
Q 19.390625 75.984375 28.609375 75.984375 
z
" id="DejaVuSans-102"/>
      <path d="M 18.3125 70.21875 
L 18.3125 54.6875 
L 36.8125 54.6875 
L 36.8125 47.703125 
L 18.3125 47.703125 
L 18.3125 18.015625 
Q 18.3125 11.328125 20.140625 9.421875 
Q 21.96875 7.515625 27.59375 7.515625 
L 36.8125 7.515625 
L 36.8125 0 
L 27.59375 0 
Q 17.1875 0 13.234375 3.875 
Q 9.28125 7.765625 9.28125 18.015625 
L 9.28125 47.703125 
L 2.6875 47.703125 
L 2.6875 54.6875 
L 9.28125 54.6875 
L 9.28125 70.21875 
z
" id="DejaVuSans-116"/>
      <path d="M 54.890625 33.015625 
L 54.890625 0 
L 45.90625 0 
L 45.90625 32.71875 
Q 45.90625 40.484375 42.875 44.328125 
Q 39.84375 48.1875 33.796875 48.1875 
Q 26.515625 48.1875 22.3125 43.546875 
Q 18.109375 38.921875 18.109375 30.90625 
L 18.109375 0 
L 9.078125 0 
L 9.078125 75.984375 
L 18.109375 75.984375 
L 18.109375 46.1875 
Q 21.34375 51.125 25.703125 53.5625 
Q 30.078125 56 35.796875 56 
Q 45.21875 56 50.046875 50.171875 
Q 54.890625 44.34375 54.890625 33.015625 
z
" id="DejaVuSans-104"/>
      <path d="M 56.203125 29.59375 
L 56.203125 25.203125 
L 14.890625 25.203125 
Q 15.484375 15.921875 20.484375 11.0625 
Q 25.484375 6.203125 34.421875 6.203125 
Q 39.59375 6.203125 44.453125 7.46875 
Q 49.3125 8.734375 54.109375 11.28125 
L 54.109375 2.78125 
Q 49.265625 0.734375 44.1875 -0.34375 
Q 39.109375 -1.421875 33.890625 -1.421875 
Q 20.796875 -1.421875 13.15625 6.1875 
Q 5.515625 13.8125 5.515625 26.8125 
Q 5.515625 40.234375 12.765625 48.109375 
Q 20.015625 56 32.328125 56 
Q 43.359375 56 49.78125 48.890625 
Q 56.203125 41.796875 56.203125 29.59375 
z
M 47.21875 32.234375 
Q 47.125 39.59375 43.09375 43.984375 
Q 39.0625 48.390625 32.421875 48.390625 
Q 24.90625 48.390625 20.390625 44.140625 
Q 15.875 39.890625 15.1875 32.171875 
z
" id="DejaVuSans-101"/>
      <path d="M 9.078125 75.984375 
L 18.109375 75.984375 
L 18.109375 31.109375 
L 44.921875 54.6875 
L 56.390625 54.6875 
L 27.390625 29.109375 
L 57.625 0 
L 45.90625 0 
L 18.109375 26.703125 
L 18.109375 0 
L 9.078125 0 
z
" id="DejaVuSans-107"/>
     </defs>
     <g transform="translate(229.892188 419.681875)scale(0.2 -0.2)">
      <use xlink:href="#DejaVuSans-68"/>
      <use x="77.001953" xlink:href="#DejaVuSans-97"/>
      <use x="138.28125" xlink:href="#DejaVuSans-121"/>
      <use x="197.460938" xlink:href="#DejaVuSans-32"/>
      <use x="229.248047" xlink:href="#DejaVuSans-111"/>
      <use x="290.429688" xlink:href="#DejaVuSans-102"/>
      <use x="325.634766" xlink:href="#DejaVuSans-32"/>
      <use x="357.421875" xlink:href="#DejaVuSans-116"/>
      <use x="396.630859" xlink:href="#DejaVuSans-104"/>
      <use x="460.009766" xlink:href="#DejaVuSans-101"/>
      <use x="521.533203" xlink:href="#DejaVuSans-32"/>
      <use x="553.320312" xlink:href="#DejaVuSans-87"/>
      <use x="652.119141" xlink:href="#DejaVuSans-101"/>
      <use x="713.642578" xlink:href="#DejaVuSans-101"/>
      <use x="775.166016" xlink:href="#DejaVuSans-107"/>
     </g>
    </g>
   </g>
   <g id="matplotlib.axis_2">
    <g id="ytick_1">
     <g id="line2d_8">
      <defs>
       <path d="M 0 0 
L -3.5 0 
" id="mf2f2addc33" style="stroke:#000000;stroke-width:0.8;"/>
      </defs>
      <g>
       <use style="stroke:#000000;stroke-width:0.8;" x="90" xlink:href="#mf2f2addc33" y="79.02"/>
      </g>
     </g>
     <g id="text_9">
      <!-- 12AM-3AM -->
      <defs>
       <path d="M 12.40625 8.296875 
L 28.515625 8.296875 
L 28.515625 63.921875 
L 10.984375 60.40625 
L 10.984375 69.390625 
L 28.421875 72.90625 
L 38.28125 72.90625 
L 38.28125 8.296875 
L 54.390625 8.296875 
L 54.390625 0 
L 12.40625 0 
z
" id="DejaVuSans-49"/>
       <path d="M 19.1875 8.296875 
L 53.609375 8.296875 
L 53.609375 0 
L 7.328125 0 
L 7.328125 8.296875 
Q 12.9375 14.109375 22.625 23.890625 
Q 32.328125 33.6875 34.8125 36.53125 
Q 39.546875 41.84375 41.421875 45.53125 
Q 43.3125 49.21875 43.3125 52.78125 
Q 43.3125 58.59375 39.234375 62.25 
Q 35.15625 65.921875 28.609375 65.921875 
Q 23.96875 65.921875 18.8125 64.3125 
Q 13.671875 62.703125 7.8125 59.421875 
L 7.8125 69.390625 
Q 13.765625 71.78125 18.9375 73 
Q 24.125 74.21875 28.421875 74.21875 
Q 39.75 74.21875 46.484375 68.546875 
Q 53.21875 62.890625 53.21875 53.421875 
Q 53.21875 48.921875 51.53125 44.890625 
Q 49.859375 40.875 45.40625 35.40625 
Q 44.1875 33.984375 37.640625 27.21875 
Q 31.109375 20.453125 19.1875 8.296875 
z
" id="DejaVuSans-50"/>
       <path d="M 4.890625 31.390625 
L 31.203125 31.390625 
L 31.203125 23.390625 
L 4.890625 23.390625 
z
" id="DejaVuSans-45"/>
       <path d="M 40.578125 39.3125 
Q 47.65625 37.796875 51.625 33 
Q 55.609375 28.21875 55.609375 21.1875 
Q 55.609375 10.40625 48.1875 4.484375 
Q 40.765625 -1.421875 27.09375 -1.421875 
Q 22.515625 -1.421875 17.65625 -0.515625 
Q 12.796875 0.390625 7.625 2.203125 
L 7.625 11.71875 
Q 11.71875 9.328125 16.59375 8.109375 
Q 21.484375 6.890625 26.8125 6.890625 
Q 36.078125 6.890625 40.9375 10.546875 
Q 45.796875 14.203125 45.796875 21.1875 
Q 45.796875 27.640625 41.28125 31.265625 
Q 36.765625 34.90625 28.71875 34.90625 
L 20.21875 34.90625 
L 20.21875 43.015625 
L 29.109375 43.015625 
Q 36.375 43.015625 40.234375 45.921875 
Q 44.09375 48.828125 44.09375 54.296875 
Q 44.09375 59.90625 40.109375 62.90625 
Q 36.140625 65.921875 28.71875 65.921875 
Q 24.65625 65.921875 20.015625 65.03125 
Q 15.375 64.15625 9.8125 62.3125 
L 9.8125 71.09375 
Q 15.4375 72.65625 20.34375 73.4375 
Q 25.25 74.21875 29.59375 74.21875 
Q 40.828125 74.21875 47.359375 69.109375 
Q 53.90625 64.015625 53.90625 55.328125 
Q 53.90625 49.265625 50.4375 45.09375 
Q 46.96875 40.921875 40.578125 39.3125 
z
" id="DejaVuSans-51"/>
      </defs>
      <g transform="translate(-2.8125 85.09875)scale(0.16 -0.16)">
       <use xlink:href="#DejaVuSans-49"/>
       <use x="63.623047" xlink:href="#DejaVuSans-50"/>
       <use x="127.246094" xlink:href="#DejaVuSans-65"/>
       <use x="195.654297" xlink:href="#DejaVuSans-77"/>
       <use x="281.933594" xlink:href="#DejaVuSans-45"/>
       <use x="318.017578" xlink:href="#DejaVuSans-51"/>
       <use x="381.640625" xlink:href="#DejaVuSans-65"/>
       <use x="450.048828" xlink:href="#DejaVuSans-77"/>
      </g>
     </g>
    </g>
    <g id="ytick_2">
     <g id="line2d_9">
      <g>
       <use style="stroke:#000000;stroke-width:0.8;" x="90" xlink:href="#mf2f2addc33" y="133.38"/>
      </g>
     </g>
     <g id="text_10">
      <!-- 4AM-7AM -->
      <defs>
       <path d="M 37.796875 64.3125 
L 12.890625 25.390625 
L 37.796875 25.390625 
z
M 35.203125 72.90625 
L 47.609375 72.90625 
L 47.609375 25.390625 
L 58.015625 25.390625 
L 58.015625 17.1875 
L 47.609375 17.1875 
L 47.609375 0 
L 37.796875 0 
L 37.796875 17.1875 
L 4.890625 17.1875 
L 4.890625 26.703125 
z
" id="DejaVuSans-52"/>
       <path d="M 8.203125 72.90625 
L 55.078125 72.90625 
L 55.078125 68.703125 
L 28.609375 0 
L 18.3125 0 
L 43.21875 64.59375 
L 8.203125 64.59375 
z
" id="DejaVuSans-55"/>
      </defs>
      <g transform="translate(7.3675 139.45875)scale(0.16 -0.16)">
       <use xlink:href="#DejaVuSans-52"/>
       <use x="63.623047" xlink:href="#DejaVuSans-65"/>
       <use x="132.03125" xlink:href="#DejaVuSans-77"/>
       <use x="218.310547" xlink:href="#DejaVuSans-45"/>
       <use x="254.394531" xlink:href="#DejaVuSans-55"/>
       <use x="318.017578" xlink:href="#DejaVuSans-65"/>
       <use x="386.425781" xlink:href="#DejaVuSans-77"/>
      </g>
     </g>
    </g>
    <g id="ytick_3">
     <g id="line2d_10">
      <g>
       <use style="stroke:#000000;stroke-width:0.8;" x="90" xlink:href="#mf2f2addc33" y="187.74"/>
      </g>
     </g>
     <g id="text_11">
      <!-- 8AM-11AM -->
      <defs>
       <path d="M 31.78125 34.625 
Q 24.75 34.625 20.71875 30.859375 
Q 16.703125 27.09375 16.703125 20.515625 
Q 16.703125 13.921875 20.71875 10.15625 
Q 24.75 6.390625 31.78125 6.390625 
Q 38.8125 6.390625 42.859375 10.171875 
Q 46.921875 13.96875 46.921875 20.515625 
Q 46.921875 27.09375 42.890625 30.859375 
Q 38.875 34.625 31.78125 34.625 
z
M 21.921875 38.8125 
Q 15.578125 40.375 12.03125 44.71875 
Q 8.5 49.078125 8.5 55.328125 
Q 8.5 64.0625 14.71875 69.140625 
Q 20.953125 74.21875 31.78125 74.21875 
Q 42.671875 74.21875 48.875 69.140625 
Q 55.078125 64.0625 55.078125 55.328125 
Q 55.078125 49.078125 51.53125 44.71875 
Q 48 40.375 41.703125 38.8125 
Q 48.828125 37.15625 52.796875 32.3125 
Q 56.78125 27.484375 56.78125 20.515625 
Q 56.78125 9.90625 50.3125 4.234375 
Q 43.84375 -1.421875 31.78125 -1.421875 
Q 19.734375 -1.421875 13.25 4.234375 
Q 6.78125 9.90625 6.78125 20.515625 
Q 6.78125 27.484375 10.78125 32.3125 
Q 14.796875 37.15625 21.921875 38.8125 
z
M 18.3125 54.390625 
Q 18.3125 48.734375 21.84375 45.5625 
Q 25.390625 42.390625 31.78125 42.390625 
Q 38.140625 42.390625 41.71875 45.5625 
Q 45.3125 48.734375 45.3125 54.390625 
Q 45.3125 60.0625 41.71875 63.234375 
Q 38.140625 66.40625 31.78125 66.40625 
Q 25.390625 66.40625 21.84375 63.234375 
Q 18.3125 60.0625 18.3125 54.390625 
z
" id="DejaVuSans-56"/>
      </defs>
      <g transform="translate(-2.8125 193.81875)scale(0.16 -0.16)">
       <use xlink:href="#DejaVuSans-56"/>
       <use x="63.623047" xlink:href="#DejaVuSans-65"/>
       <use x="132.03125" xlink:href="#DejaVuSans-77"/>
       <use x="218.310547" xlink:href="#DejaVuSans-45"/>
       <use x="254.394531" xlink:href="#DejaVuSans-49"/>
       <use x="318.017578" xlink:href="#DejaVuSans-49"/>
       <use x="381.640625" xlink:href="#DejaVuSans-65"/>
       <use x="450.048828" xlink:href="#DejaVuSans-77"/>
      </g>
     </g>
    </g>
    <g id="ytick_4">
     <g id="line2d_11">
      <g>
       <use style="stroke:#000000;stroke-width:0.8;" x="90" xlink:href="#mf2f2addc33" y="242.1"/>
      </g>
     </g>
     <g id="text_12">
      <!-- 12PM-3PM -->
      <defs>
       <path d="M 19.671875 64.796875 
L 19.671875 37.40625 
L 32.078125 37.40625 
Q 38.96875 37.40625 42.71875 40.96875 
Q 46.484375 44.53125 46.484375 51.125 
Q 46.484375 57.671875 42.71875 61.234375 
Q 38.96875 64.796875 32.078125 64.796875 
z
M 9.8125 72.90625 
L 32.078125 72.90625 
Q 44.34375 72.90625 50.609375 67.359375 
Q 56.890625 61.8125 56.890625 51.125 
Q 56.890625 40.328125 50.609375 34.8125 
Q 44.34375 29.296875 32.078125 29.296875 
L 19.671875 29.296875 
L 19.671875 0 
L 9.8125 0 
z
" id="DejaVuSans-80"/>
      </defs>
      <g transform="translate(-0.2175 248.17875)scale(0.16 -0.16)">
       <use xlink:href="#DejaVuSans-49"/>
       <use x="63.623047" xlink:href="#DejaVuSans-50"/>
       <use x="127.246094" xlink:href="#DejaVuSans-80"/>
       <use x="187.548828" xlink:href="#DejaVuSans-77"/>
       <use x="273.828125" xlink:href="#DejaVuSans-45"/>
       <use x="309.912109" xlink:href="#DejaVuSans-51"/>
       <use x="373.535156" xlink:href="#DejaVuSans-80"/>
       <use x="433.837891" xlink:href="#DejaVuSans-77"/>
      </g>
     </g>
    </g>
    <g id="ytick_5">
     <g id="line2d_12">
      <g>
       <use style="stroke:#000000;stroke-width:0.8;" x="90" xlink:href="#mf2f2addc33" y="296.46"/>
      </g>
     </g>
     <g id="text_13">
      <!-- 4PM-7PM -->
      <g transform="translate(9.9625 302.53875)scale(0.16 -0.16)">
       <use xlink:href="#DejaVuSans-52"/>
       <use x="63.623047" xlink:href="#DejaVuSans-80"/>
       <use x="123.925781" xlink:href="#DejaVuSans-77"/>
       <use x="210.205078" xlink:href="#DejaVuSans-45"/>
       <use x="246.289062" xlink:href="#DejaVuSans-55"/>
       <use x="309.912109" xlink:href="#DejaVuSans-80"/>
       <use x="370.214844" xlink:href="#DejaVuSans-77"/>
      </g>
     </g>
    </g>
    <g id="ytick_6">
     <g id="line2d_13">
      <g>
       <use style="stroke:#000000;stroke-width:0.8;" x="90" xlink:href="#mf2f2addc33" y="350.82"/>
      </g>
     </g>
     <g id="text_14">
      <!-- 8PM-12AM -->
      <g transform="translate(-1.515 356.89875)scale(0.16 -0.16)">
       <use xlink:href="#DejaVuSans-56"/>
       <use x="63.623047" xlink:href="#DejaVuSans-80"/>
       <use x="123.925781" xlink:href="#DejaVuSans-77"/>
       <use x="210.205078" xlink:href="#DejaVuSans-45"/>
       <use x="246.289062" xlink:href="#DejaVuSans-49"/>
       <use x="309.912109" xlink:href="#DejaVuSans-50"/>
       <use x="373.535156" xlink:href="#DejaVuSans-65"/>
       <use x="441.943359" xlink:href="#DejaVuSans-77"/>
      </g>
     </g>
    </g>
    <g id="text_15">
     <!-- Time of Day -->
     <defs>
      <path d="M 9.421875 54.6875 
L 18.40625 54.6875 
L 18.40625 0 
L 9.421875 0 
z
M 9.421875 75.984375 
L 18.40625 75.984375 
L 18.40625 64.59375 
L 9.421875 64.59375 
z
" id="DejaVuSans-105"/>
      <path d="M 52 44.1875 
Q 55.375 50.25 60.0625 53.125 
Q 64.75 56 71.09375 56 
Q 79.640625 56 84.28125 50.015625 
Q 88.921875 44.046875 88.921875 33.015625 
L 88.921875 0 
L 79.890625 0 
L 79.890625 32.71875 
Q 79.890625 40.578125 77.09375 44.375 
Q 74.3125 48.1875 68.609375 48.1875 
Q 61.625 48.1875 57.5625 43.546875 
Q 53.515625 38.921875 53.515625 30.90625 
L 53.515625 0 
L 44.484375 0 
L 44.484375 32.71875 
Q 44.484375 40.625 41.703125 44.40625 
Q 38.921875 48.1875 33.109375 48.1875 
Q 26.21875 48.1875 22.15625 43.53125 
Q 18.109375 38.875 18.109375 30.90625 
L 18.109375 0 
L 9.078125 0 
L 9.078125 54.6875 
L 18.109375 54.6875 
L 18.109375 46.1875 
Q 21.1875 51.21875 25.484375 53.609375 
Q 29.78125 56 35.6875 56 
Q 41.65625 56 45.828125 52.96875 
Q 50 49.953125 52 44.1875 
z
" id="DejaVuSans-109"/>
     </defs>
     <g transform="translate(-10.971875 275.437187)rotate(-90)scale(0.2 -0.2)">
      <use xlink:href="#DejaVuSans-84"/>
      <use x="61.037109" xlink:href="#DejaVuSans-105"/>
      <use x="88.820312" xlink:href="#DejaVuSans-109"/>
      <use x="186.232422" xlink:href="#DejaVuSans-101"/>
      <use x="247.755859" xlink:href="#DejaVuSans-32"/>
      <use x="279.542969" xlink:href="#DejaVuSans-111"/>
      <use x="340.724609" xlink:href="#DejaVuSans-102"/>
      <use x="375.929688" xlink:href="#DejaVuSans-32"/>
      <use x="407.716797" xlink:href="#DejaVuSans-68"/>
      <use x="484.71875" xlink:href="#DejaVuSans-97"/>
      <use x="545.998047" xlink:href="#DejaVuSans-121"/>
     </g>
    </g>
   </g>
   <g id="text_16">
    <!-- Transit Heatmap for 47-50 STS ROCK -->
    <defs>
     <path d="M 41.109375 46.296875 
Q 39.59375 47.171875 37.8125 47.578125 
Q 36.03125 48 33.890625 48 
Q 26.265625 48 22.1875 43.046875 
Q 18.109375 38.09375 18.109375 28.8125 
L 18.109375 0 
L 9.078125 0 
L 9.078125 54.6875 
L 18.109375 54.6875 
L 18.109375 46.1875 
Q 20.953125 51.171875 25.484375 53.578125 
Q 30.03125 56 36.53125 56 
Q 37.453125 56 38.578125 55.875 
Q 39.703125 55.765625 41.0625 55.515625 
z
" id="DejaVuSans-114"/>
     <path d="M 54.890625 33.015625 
L 54.890625 0 
L 45.90625 0 
L 45.90625 32.71875 
Q 45.90625 40.484375 42.875 44.328125 
Q 39.84375 48.1875 33.796875 48.1875 
Q 26.515625 48.1875 22.3125 43.546875 
Q 18.109375 38.921875 18.109375 30.90625 
L 18.109375 0 
L 9.078125 0 
L 9.078125 54.6875 
L 18.109375 54.6875 
L 18.109375 46.1875 
Q 21.34375 51.125 25.703125 53.5625 
Q 30.078125 56 35.796875 56 
Q 45.21875 56 50.046875 50.171875 
Q 54.890625 44.34375 54.890625 33.015625 
z
" id="DejaVuSans-110"/>
     <path d="M 44.28125 53.078125 
L 44.28125 44.578125 
Q 40.484375 46.53125 36.375 47.5 
Q 32.28125 48.484375 27.875 48.484375 
Q 21.1875 48.484375 17.84375 46.4375 
Q 14.5 44.390625 14.5 40.28125 
Q 14.5 37.15625 16.890625 35.375 
Q 19.28125 33.59375 26.515625 31.984375 
L 29.59375 31.296875 
Q 39.15625 29.25 43.1875 25.515625 
Q 47.21875 21.78125 47.21875 15.09375 
Q 47.21875 7.46875 41.1875 3.015625 
Q 35.15625 -1.421875 24.609375 -1.421875 
Q 20.21875 -1.421875 15.453125 -0.5625 
Q 10.6875 0.296875 5.421875 2 
L 5.421875 11.28125 
Q 10.40625 8.6875 15.234375 7.390625 
Q 20.0625 6.109375 24.8125 6.109375 
Q 31.15625 6.109375 34.5625 8.28125 
Q 37.984375 10.453125 37.984375 14.40625 
Q 37.984375 18.0625 35.515625 20.015625 
Q 33.0625 21.96875 24.703125 23.78125 
L 21.578125 24.515625 
Q 13.234375 26.265625 9.515625 29.90625 
Q 5.8125 33.546875 5.8125 39.890625 
Q 5.8125 47.609375 11.28125 51.796875 
Q 16.75 56 26.8125 56 
Q 31.78125 56 36.171875 55.265625 
Q 40.578125 54.546875 44.28125 53.078125 
z
" id="DejaVuSans-115"/>
     <path d="M 18.109375 8.203125 
L 18.109375 -20.796875 
L 9.078125 -20.796875 
L 9.078125 54.6875 
L 18.109375 54.6875 
L 18.109375 46.390625 
Q 20.953125 51.265625 25.265625 53.625 
Q 29.59375 56 35.59375 56 
Q 45.5625 56 51.78125 48.09375 
Q 58.015625 40.1875 58.015625 27.296875 
Q 58.015625 14.40625 51.78125 6.484375 
Q 45.5625 -1.421875 35.59375 -1.421875 
Q 29.59375 -1.421875 25.265625 0.953125 
Q 20.953125 3.328125 18.109375 8.203125 
z
M 48.6875 27.296875 
Q 48.6875 37.203125 44.609375 42.84375 
Q 40.53125 48.484375 33.40625 48.484375 
Q 26.265625 48.484375 22.1875 42.84375 
Q 18.109375 37.203125 18.109375 27.296875 
Q 18.109375 17.390625 22.1875 11.75 
Q 26.265625 6.109375 33.40625 6.109375 
Q 40.53125 6.109375 44.609375 11.75 
Q 48.6875 17.390625 48.6875 27.296875 
z
" id="DejaVuSans-112"/>
     <path d="M 10.796875 72.90625 
L 49.515625 72.90625 
L 49.515625 64.59375 
L 19.828125 64.59375 
L 19.828125 46.734375 
Q 21.96875 47.46875 24.109375 47.828125 
Q 26.265625 48.1875 28.421875 48.1875 
Q 40.625 48.1875 47.75 41.5 
Q 54.890625 34.8125 54.890625 23.390625 
Q 54.890625 11.625 47.5625 5.09375 
Q 40.234375 -1.421875 26.90625 -1.421875 
Q 22.3125 -1.421875 17.546875 -0.640625 
Q 12.796875 0.140625 7.71875 1.703125 
L 7.71875 11.625 
Q 12.109375 9.234375 16.796875 8.0625 
Q 21.484375 6.890625 26.703125 6.890625 
Q 35.15625 6.890625 40.078125 11.328125 
Q 45.015625 15.765625 45.015625 23.390625 
Q 45.015625 31 40.078125 35.4375 
Q 35.15625 39.890625 26.703125 39.890625 
Q 22.75 39.890625 18.8125 39.015625 
Q 14.890625 38.140625 10.796875 36.28125 
z
" id="DejaVuSans-53"/>
     <path d="M 31.78125 66.40625 
Q 24.171875 66.40625 20.328125 58.90625 
Q 16.5 51.421875 16.5 36.375 
Q 16.5 21.390625 20.328125 13.890625 
Q 24.171875 6.390625 31.78125 6.390625 
Q 39.453125 6.390625 43.28125 13.890625 
Q 47.125 21.390625 47.125 36.375 
Q 47.125 51.421875 43.28125 58.90625 
Q 39.453125 66.40625 31.78125 66.40625 
z
M 31.78125 74.21875 
Q 44.046875 74.21875 50.515625 64.515625 
Q 56.984375 54.828125 56.984375 36.375 
Q 56.984375 17.96875 50.515625 8.265625 
Q 44.046875 -1.421875 31.78125 -1.421875 
Q 19.53125 -1.421875 13.0625 8.265625 
Q 6.59375 17.96875 6.59375 36.375 
Q 6.59375 54.828125 13.0625 64.515625 
Q 19.53125 74.21875 31.78125 74.21875 
z
" id="DejaVuSans-48"/>
     <path d="M 64.40625 67.28125 
L 64.40625 56.890625 
Q 59.421875 61.53125 53.78125 63.8125 
Q 48.140625 66.109375 41.796875 66.109375 
Q 29.296875 66.109375 22.65625 58.46875 
Q 16.015625 50.828125 16.015625 36.375 
Q 16.015625 21.96875 22.65625 14.328125 
Q 29.296875 6.6875 41.796875 6.6875 
Q 48.140625 6.6875 53.78125 8.984375 
Q 59.421875 11.28125 64.40625 15.921875 
L 64.40625 5.609375 
Q 59.234375 2.09375 53.4375 0.328125 
Q 47.65625 -1.421875 41.21875 -1.421875 
Q 24.65625 -1.421875 15.125 8.703125 
Q 5.609375 18.84375 5.609375 36.375 
Q 5.609375 53.953125 15.125 64.078125 
Q 24.65625 74.21875 41.21875 74.21875 
Q 47.75 74.21875 53.53125 72.484375 
Q 59.328125 70.75 64.40625 67.28125 
z
" id="DejaVuSans-67"/>
     <path d="M 9.8125 72.90625 
L 19.671875 72.90625 
L 19.671875 42.09375 
L 52.390625 72.90625 
L 65.09375 72.90625 
L 28.90625 38.921875 
L 67.671875 0 
L 54.6875 0 
L 19.671875 35.109375 
L 19.671875 0 
L 9.8125 0 
z
" id="DejaVuSans-75"/>
    </defs>
    <g transform="translate(126.826563 45.84)scale(0.2 -0.2)">
     <use xlink:href="#DejaVuSans-84"/>
     <use x="60.865234" xlink:href="#DejaVuSans-114"/>
     <use x="101.978516" xlink:href="#DejaVuSans-97"/>
     <use x="163.257812" xlink:href="#DejaVuSans-110"/>
     <use x="226.636719" xlink:href="#DejaVuSans-115"/>
     <use x="278.736328" xlink:href="#DejaVuSans-105"/>
     <use x="306.519531" xlink:href="#DejaVuSans-116"/>
     <use x="345.728516" xlink:href="#DejaVuSans-32"/>
     <use x="377.515625" xlink:href="#DejaVuSans-72"/>
     <use x="452.710938" xlink:href="#DejaVuSans-101"/>
     <use x="514.234375" xlink:href="#DejaVuSans-97"/>
     <use x="575.513672" xlink:href="#DejaVuSans-116"/>
     <use x="614.722656" xlink:href="#DejaVuSans-109"/>
     <use x="712.134766" xlink:href="#DejaVuSans-97"/>
     <use x="773.414062" xlink:href="#DejaVuSans-112"/>
     <use x="836.890625" xlink:href="#DejaVuSans-32"/>
     <use x="868.677734" xlink:href="#DejaVuSans-102"/>
     <use x="903.882812" xlink:href="#DejaVuSans-111"/>
     <use x="965.064453" xlink:href="#DejaVuSans-114"/>
     <use x="1006.177734" xlink:href="#DejaVuSans-32"/>
     <use x="1037.964844" xlink:href="#DejaVuSans-52"/>
     <use x="1101.587891" xlink:href="#DejaVuSans-55"/>
     <use x="1165.210938" xlink:href="#DejaVuSans-45"/>
     <use x="1201.294922" xlink:href="#DejaVuSans-53"/>
     <use x="1264.917969" xlink:href="#DejaVuSans-48"/>
     <use x="1328.541016" xlink:href="#DejaVuSans-32"/>
     <use x="1360.328125" xlink:href="#DejaVuSans-83"/>
     <use x="1423.804688" xlink:href="#DejaVuSans-84"/>
     <use x="1484.888672" xlink:href="#DejaVuSans-83"/>
     <use x="1548.365234" xlink:href="#DejaVuSans-32"/>
     <use x="1580.152344" xlink:href="#DejaVuSans-82"/>
     <use x="1649.634766" xlink:href="#DejaVuSans-79"/>
     <use x="1728.345703" xlink:href="#DejaVuSans-67"/>
     <use x="1798.169922" xlink:href="#DejaVuSans-75"/>
    </g>
   </g>
  </g>
  <g id="axes_2">
   <g id="patch_3">
    <path clip-path="url(#p9c99932d45)" d="M 564.3 378 
L 564.3 357.615 
L 564.3 72.225 
L 564.3 51.84 
L 580.608 51.84 
L 580.608 72.225 
L 580.608 357.615 
L 580.608 378 
z
" style="fill:#ffffff;stroke:#ffffff;stroke-linejoin:miter;stroke-width:0.01;"/>
   </g>
   <g id="QuadMesh_2">
    <path clip-path="url(#p9c99932d45)" d="M 564.3 378 
L 580.608 378 
L 580.608 357.615 
L 564.3 357.615 
L 564.3 378 
" style="fill:#e5ffe5;"/>
    <path clip-path="url(#p9c99932d45)" d="M 564.3 357.615 
L 580.608 357.615 
L 580.608 337.23 
L 564.3 337.23 
L 564.3 357.615 
" style="fill:#d6f7d6;"/>
    <path clip-path="url(#p9c99932d45)" d="M 564.3 337.23 
L 580.608 337.23 
L 580.608 316.845 
L 564.3 316.845 
L 564.3 337.23 
" style="fill:#c7eec7;"/>
    <path clip-path="url(#p9c99932d45)" d="M 564.3 316.845 
L 580.608 316.845 
L 580.608 296.46 
L 564.3 296.46 
L 564.3 316.845 
" style="fill:#b8e6b8;"/>
    <path clip-path="url(#p9c99932d45)" d="M 564.3 296.46 
L 580.608 296.46 
L 580.608 276.075 
L 564.3 276.075 
L 564.3 296.46 
" style="fill:#a8dda8;"/>
    <path clip-path="url(#p9c99932d45)" d="M 564.3 276.075 
L 580.608 276.075 
L 580.608 255.69 
L 564.3 255.69 
L 564.3 276.075 
" style="fill:#99d599;"/>
    <path clip-path="url(#p9c99932d45)" d="M 564.3 255.69 
L 580.608 255.69 
L 580.608 235.305 
L 564.3 235.305 
L 564.3 255.69 
" style="fill:#8acc8a;"/>
    <path clip-path="url(#p9c99932d45)" d="M 564.3 235.305 
L 580.608 235.305 
L 580.608 214.92 
L 564.3 214.92 
L 564.3 235.305 
" style="fill:#7ac47a;"/>
    <path clip-path="url(#p9c99932d45)" d="M 564.3 214.92 
L 580.608 214.92 
L 580.608 194.535 
L 564.3 194.535 
L 564.3 214.92 
" style="fill:#6bbb6b;"/>
    <path clip-path="url(#p9c99932d45)" d="M 564.3 194.535 
L 580.608 194.535 
L 580.608 174.15 
L 564.3 174.15 
L 564.3 194.535 
" style="fill:#5cb35c;"/>
    <path clip-path="url(#p9c99932d45)" d="M 564.3 174.15 
L 580.608 174.15 
L 580.608 153.765 
L 564.3 153.765 
L 564.3 174.15 
" style="fill:#4daa4d;"/>
    <path clip-path="url(#p9c99932d45)" d="M 564.3 153.765 
L 580.608 153.765 
L 580.608 133.38 
L 564.3 133.38 
L 564.3 153.765 
" style="fill:#3da23d;"/>
    <path clip-path="url(#p9c99932d45)" d="M 564.3 133.38 
L 580.608 133.38 
L 580.608 112.995 
L 564.3 112.995 
L 564.3 133.38 
" style="fill:#2e992e;"/>
    <path clip-path="url(#p9c99932d45)" d="M 564.3 112.995 
L 580.608 112.995 
L 580.608 92.61 
L 564.3 92.61 
L 564.3 112.995 
" style="fill:#1f911f;"/>
    <path clip-path="url(#p9c99932d45)" d="M 564.3 92.61 
L 580.608 92.61 
L 580.608 72.225 
L 564.3 72.225 
L 564.3 92.61 
" style="fill:#0f880f;"/>
    <path clip-path="url(#p9c99932d45)" d="M 564.3 72.225 
L 580.608 72.225 
L 580.608 51.84 
L 564.3 51.84 
L 564.3 72.225 
" style="fill:#008000;"/>
   </g>
   <g id="matplotlib.axis_3"/>
   <g id="matplotlib.axis_4">
    <g id="ytick_7">
     <g id="line2d_14">
      <defs>
       <path d="M 0 0 
L 3.5 0 
" id="mabc5b8c5f6" style="stroke:#000000;stroke-width:0.8;"/>
      </defs>
      <g>
       <use style="stroke:#000000;stroke-width:0.8;" x="580.608" xlink:href="#mabc5b8c5f6" y="378"/>
      </g>
     </g>
     <g id="text_17">
      <!-- 0 -->
      <g transform="translate(587.608 381.799219)scale(0.1 -0.1)">
       <use xlink:href="#DejaVuSans-48"/>
      </g>
     </g>
    </g>
    <g id="ytick_8">
     <g id="line2d_15">
      <g>
       <use style="stroke:#000000;stroke-width:0.8;" x="580.608" xlink:href="#mabc5b8c5f6" y="312.768"/>
      </g>
     </g>
     <g id="text_18">
      <!-- 20000 -->
      <g transform="translate(587.608 316.567219)scale(0.1 -0.1)">
       <use xlink:href="#DejaVuSans-50"/>
       <use x="63.623047" xlink:href="#DejaVuSans-48"/>
       <use x="127.246094" xlink:href="#DejaVuSans-48"/>
       <use x="190.869141" xlink:href="#DejaVuSans-48"/>
       <use x="254.492188" xlink:href="#DejaVuSans-48"/>
      </g>
     </g>
    </g>
    <g id="ytick_9">
     <g id="line2d_16">
      <g>
       <use style="stroke:#000000;stroke-width:0.8;" x="580.608" xlink:href="#mabc5b8c5f6" y="247.536"/>
      </g>
     </g>
     <g id="text_19">
      <!-- 40000 -->
      <g transform="translate(587.608 251.335219)scale(0.1 -0.1)">
       <use xlink:href="#DejaVuSans-52"/>
       <use x="63.623047" xlink:href="#DejaVuSans-48"/>
       <use x="127.246094" xlink:href="#DejaVuSans-48"/>
       <use x="190.869141" xlink:href="#DejaVuSans-48"/>
       <use x="254.492188" xlink:href="#DejaVuSans-48"/>
      </g>
     </g>
    </g>
    <g id="ytick_10">
     <g id="line2d_17">
      <g>
       <use style="stroke:#000000;stroke-width:0.8;" x="580.608" xlink:href="#mabc5b8c5f6" y="182.304"/>
      </g>
     </g>
     <g id="text_20">
      <!-- 60000 -->
      <defs>
       <path d="M 33.015625 40.375 
Q 26.375 40.375 22.484375 35.828125 
Q 18.609375 31.296875 18.609375 23.390625 
Q 18.609375 15.53125 22.484375 10.953125 
Q 26.375 6.390625 33.015625 6.390625 
Q 39.65625 6.390625 43.53125 10.953125 
Q 47.40625 15.53125 47.40625 23.390625 
Q 47.40625 31.296875 43.53125 35.828125 
Q 39.65625 40.375 33.015625 40.375 
z
M 52.59375 71.296875 
L 52.59375 62.3125 
Q 48.875 64.0625 45.09375 64.984375 
Q 41.3125 65.921875 37.59375 65.921875 
Q 27.828125 65.921875 22.671875 59.328125 
Q 17.53125 52.734375 16.796875 39.40625 
Q 19.671875 43.65625 24.015625 45.921875 
Q 28.375 48.1875 33.59375 48.1875 
Q 44.578125 48.1875 50.953125 41.515625 
Q 57.328125 34.859375 57.328125 23.390625 
Q 57.328125 12.15625 50.6875 5.359375 
Q 44.046875 -1.421875 33.015625 -1.421875 
Q 20.359375 -1.421875 13.671875 8.265625 
Q 6.984375 17.96875 6.984375 36.375 
Q 6.984375 53.65625 15.1875 63.9375 
Q 23.390625 74.21875 37.203125 74.21875 
Q 40.921875 74.21875 44.703125 73.484375 
Q 48.484375 72.75 52.59375 71.296875 
z
" id="DejaVuSans-54"/>
      </defs>
      <g transform="translate(587.608 186.103219)scale(0.1 -0.1)">
       <use xlink:href="#DejaVuSans-54"/>
       <use x="63.623047" xlink:href="#DejaVuSans-48"/>
       <use x="127.246094" xlink:href="#DejaVuSans-48"/>
       <use x="190.869141" xlink:href="#DejaVuSans-48"/>
       <use x="254.492188" xlink:href="#DejaVuSans-48"/>
      </g>
     </g>
    </g>
    <g id="ytick_11">
     <g id="line2d_18">
      <g>
       <use style="stroke:#000000;stroke-width:0.8;" x="580.608" xlink:href="#mabc5b8c5f6" y="117.072"/>
      </g>
     </g>
     <g id="text_21">
      <!-- 80000 -->
      <g transform="translate(587.608 120.871219)scale(0.1 -0.1)">
       <use xlink:href="#DejaVuSans-56"/>
       <use x="63.623047" xlink:href="#DejaVuSans-48"/>
       <use x="127.246094" xlink:href="#DejaVuSans-48"/>
       <use x="190.869141" xlink:href="#DejaVuSans-48"/>
       <use x="254.492188" xlink:href="#DejaVuSans-48"/>
      </g>
     </g>
    </g>
    <g id="ytick_12">
     <g id="line2d_19">
      <g>
       <use style="stroke:#000000;stroke-width:0.8;" x="580.608" xlink:href="#mabc5b8c5f6" y="51.84"/>
      </g>
     </g>
     <g id="text_22">
      <!-- 100000 -->
      <g transform="translate(587.608 55.639219)scale(0.1 -0.1)">
       <use xlink:href="#DejaVuSans-49"/>
       <use x="63.623047" xlink:href="#DejaVuSans-48"/>
       <use x="127.246094" xlink:href="#DejaVuSans-48"/>
       <use x="190.869141" xlink:href="#DejaVuSans-48"/>
       <use x="254.492188" xlink:href="#DejaVuSans-48"/>
       <use x="318.115234" xlink:href="#DejaVuSans-48"/>
      </g>
     </g>
    </g>
    <g id="text_23">
     <!-- Entries -->
     <g transform="translate(641.9405 242.7825)rotate(-90)scale(0.16 -0.16)">
      <use xlink:href="#DejaVuSans-69"/>
      <use x="63.183594" xlink:href="#DejaVuSans-110"/>
      <use x="126.5625" xlink:href="#DejaVuSans-116"/>
      <use x="165.771484" xlink:href="#DejaVuSans-114"/>
      <use x="206.884766" xlink:href="#DejaVuSans-105"/>
      <use x="234.667969" xlink:href="#DejaVuSans-101"/>
      <use x="296.191406" xlink:href="#DejaVuSans-115"/>
     </g>
    </g>
   </g>
   <g id="patch_4">
    <path d="M 564.3 378 
L 564.3 357.615 
L 564.3 72.225 
L 564.3 51.84 
L 580.608 51.84 
L 580.608 72.225 
L 580.608 357.615 
L 580.608 378 
z
" style="fill:none;"/>
   </g>
  </g>
 </g>
 <defs>
  <clipPath id="p82c0f2f85c">
   <rect height="326.16" width="446.4" x="90" y="51.84"/>
  </clipPath>
  <clipPath id="p9c99932d45">
   <rect height="326.16" width="16.308" x="564.3" y="51.84"/>
  </clipPath>
 </defs>
</svg>
